<?xml version="1.0" encoding="UTF-8"?>
<svg id="Calque_1" data-name="Calque 1" xmlns="http://www.w3.org/2000/svg" viewBox="0 0 777 639.77">
  <defs>
    <style>
      .cls-1, .cls-2 {
        fill: #63abe6;
      }

      .cls-3 {
        fill: #fff;
      }

      .cls-2 {
        opacity: .29;
      }

      .cls-4 {
        fill: #c61421;
      }

      .cls-4, .cls-5 {
        stroke: #000;
        stroke-miterlimit: 10;
        stroke-width: 2px;
      }

      .cls-6 {
        fill: #65e57e;
      }

      .cls-5 {
        fill: #ed1c24;
      }

      .cls-7 {
        fill: #e69820;
      }

      .cls-7, .cls-8 {
        opacity: .49;
      }

      .cls-8 {
        fill: #666159;
      }
    </style>
  </defs>
  <path class="cls-8" d="M690.87,203h45.45c16.93,0,30.68,13.75,30.68,30.68v45.45c0,3.24-2.63,5.87-5.87,5.87h-70.26c-3.24,0-5.87-2.63-5.87-5.87v-70.26c0-3.24,2.63-5.87,5.87-5.87Z"/>
  <rect class="cls-6" x="653" y="419" width="96" height="90" rx="4.66" ry="4.66"/>
  <rect class="cls-1" x="570" y="264" width="207" height="201" rx="26.28" ry="26.28"/>
  <rect class="cls-7" x="451" y="319" width="207" height="201" rx="35.89" ry="35.89"/>
  <rect class="cls-2" x="478" y="197" width="207" height="201" rx="22.81" ry="22.81"/>
  <path class="cls-4" d="M407.5,509.5c-7.96-8.88-47-4-57-2-4.82.96-52.09,4.13-71.96-13.11-22.82-19.27-19.04-40-18.73-66.79.87-41.91,5.12-79.89,9.36-119.41,2.29-42.38,24.36-61.39,66.34-63.69"/>
  <path class="cls-5" d="M392.66,489.74c6.99,6.38,4.79,16.96,4.13,25.43-1.21,10.97-4.14,25.85-7.13,38.67-5.29,23.87-14.3,53.03-20.64,74.92-.27,1.02-.5,1.97-.69,2.84-1.27,5.64-.97,8.15,1.47,6.82,20.86-18.32,54.03-65.21,89.56-110.99,13.09-17.16,28.15-34,49.29-39.86,11.52-3.46,23.73-3.76,35.62-4.03,9.99-.28,21.27-.22,29.97-.06,22.29.46,57.8-1,74.81-16.97,25.21-26.91,45.55-107.5,56.12-159.35,3.01-16.6,6.88-32.06,2.53-46.03-4.12-14.07-18.49-25.6-31.72-29.08-6.86-1.94-13.33-2.13-20.37-1.85-60.05,2.59-209.26,8.94-294.68,12.63-11.59.54-18.67.46-28.35,3.78-6.52,2.27-14.04,6.16-20.19,10.19-5.56,3.66-10.89,7.86-14.67,13.34-7.26,9.37-7.52,28.98-8.94,44.04-1.54,18.66-3.13,37.96-4.68,56.69-2.17,24.4-3.39,47.21-6.55,68.53-3.02,19.25-3.04,41.58,19.16,48.35,8.31,2.43,17.29,1.65,26.11,1.11,6.73-.5,13.65-1.23,20.46-1.93,15.13-1,37.46-6.22,49.28,2.76l.08.07Z"/>
  <path class="cls-3" d="M467.79,426.5c-12.21-.5-23.77-1.19-36.43-1.82-13-1.13-29.73.66-40.48-7.15-5.89-4.82-6.85-11.8-2.36-16.23,3.56-3.22,8.77-3.19,13.63-3.17,34.64.82,96.59,2.87,130.7,3.51,28.1-1.24,28.66,24.5,3.26,26.21-20.16.53-47.78-.84-68.12-1.35h-.18Z"/>
  <path class="cls-3" d="M489.9,383.02c20.64.71,50.23,1.36,70.49,2.17,13.79.46,28.98,1.68,42.84-.34,8.31-1.31,10.45-12.12,4.59-17.9-5.19-5.15-13.99-4.35-20.6-4.52-36.75-.25-130.42-5.59-168.91-4.61-7.24.98-18.05,4.13-17.78,12.86.53,8.47,9.05,10.6,16.24,10.63,7.25.28,15.52.29,23.06.31,16.37.15,33.66.9,49.93,1.39h.14Z"/>
  <path class="cls-3" d="M480.11,315.44c-8.94-5.01-18.68-13.15-28.92-16.57-11.93-3.98-28.15,2.19-34.43,13.61-5.38,7.88-6.6,23.55-16.96,26.02-6.4.94-9.14-7.33-8.14-12.84.54-4.64,2.53-9.08,4.54-13.28,3.19-6.51,6.23-12.8,11.27-18.04,4.55-4.8,10.43-8.19,16.57-10.54,12.67-4.57,25.65-6.38,38.03-.92,5.63,2.55,10.52,6.39,15.51,10,22.06,15.14,37.9,25.3,64,10.75,4.86-2.46,10.63-7.09,14.43-9.03,9-4.13,10.74,7.84,6.36,13.56-4.36,6.5-11.71,10.54-18.91,13.13-21.02,7.77-44.73,6.84-63.19-5.76l-.15-.09Z"/>
</svg>