<?xml version="1.0" encoding="UTF-8"?>
<svg id="Calque_1" data-name="Calque 1" xmlns="http://www.w3.org/2000/svg" viewBox="0 0 1000 1000">
  <defs>
    <style>
      .cls-1 {
        fill: #b3b1ad;
      }

      .cls-2 {
        fill: #c31420;
      }

      .cls-3 {
        fill: #fdfafa;
      }

      .cls-4 {
        fill: #200f10;
      }

      .cls-5 {
        fill: #63aae5;
      }

      .cls-6 {
        fill: #fff;
        font-family: Helicha, Helicha;
        font-size: 80.53px;
      }

      .cls-7 {
        fill: #65e47d;
      }

      .cls-8 {
        fill: #fefafb;
      }

      .cls-9 {
        fill: #e69820;
      }

      .cls-10 {
        letter-spacing: -.03em;
      }

      .cls-11 {
        letter-spacing: -.02em;
      }

      .cls-12 {
        letter-spacing: -.02em;
      }

      .cls-13 {
        letter-spacing: -.02em;
      }

      .cls-14 {
        letter-spacing: -.02em;
      }

      .cls-15 {
        letter-spacing: -.02em;
      }

      .cls-16 {
        letter-spacing: -.04em;
      }

      .cls-17 {
        letter-spacing: -.04em;
      }

      .cls-18 {
        letter-spacing: 0em;
      }

      .cls-19 {
        fill: #fefbfb;
      }

      .cls-20 {
        fill: #ec1c24;
      }

      .cls-21 {
        letter-spacing: 0em;
      }

      .cls-22 {
        letter-spacing: 0em;
      }
    </style>
  </defs>
  <g>
    <path class="cls-1" d="M522.01,369.73c-2.52-1.92-9.23-4.63-12.47-4.99-13.8-1.56-30.32,1.17-44.42,0-2.66-12.51-13.58-24.55-24.95-29.94.18-6.63-.25-13.34,0-19.96.19-5.03-1.21-10.16,5.44-11.03,16.93,2.2,44-3.97,59.13,2.85,24.89,11.22,15.53,41.43,17.27,63.07Z"/>
    <path class="cls-7" d="M497.06,565.55c-1.22,12.27,1.63,27.58.05,39.47-.27,2.04-.57,3.5-2.74,4.24l-88.67.25c-3.95-.53-3.97-1.57-4.44-5.04-.09-.64.04-1.34,0-2,7.17-10.17,4.99-24.85,4.99-36.93,30.01-1.01,60.91,1.35,90.82,0Z"/>
    <path class="cls-5" d="M521.02,369.73c4.39,3.34,9.35,11.85,9.98,17.46v155.7c-3.43,15.33-12.81,21.77-27.95,22.45-29.91,1.35-60.81-1.01-90.82,0v-6.99c14.95-22.49,26.42-61.28,33.65-87.61,6.62-24.13,23-83.6,18.25-106.01,14.1,1.16,30.62-1.57,44.42,0,3.24.37,9.95,3.07,12.47,4.99Z"/>
    <path class="cls-9" d="M449.16,314.84c-.25,6.62.18,13.33,0,19.96-16.58-7.87-31.12-4.44-48.36-3.95-52.76,1.51-105.47,3.58-158.23,5.95-1.14-16.86-1.05-34.16,18.55-38.84l168.58-.09c9.57,1.23,15.95,8.62,19.46,16.97Z"/>
    <path class="cls-9" d="M417.22,602.27c.04.65-.09,1.36,0,2-7,8.38-15.22,14.63-26.46,15.96-46.12-2.95-97.2,3.95-142.74.05-3.94-.34-9.42-1.4-12.44-4.03,11.88-13.41,21.27-23,39.71-27.66,38.26-9.66,114.11,8.04,141.93-23.24.55,12.13-.74,24.88,0,36.93Z"/>
    <path class="cls-4" d="M449.16,334.8c11.37,5.4,22.3,17.43,24.95,29.94,4.75,22.4-11.63,81.88-18.25,106.01-7.23,26.33-18.7,65.12-33.65,87.61-.77,1.16-4.39,6.31-4.99,6.99-27.82,31.28-103.68,13.58-141.93,23.24-18.44,4.66-27.83,14.25-39.71,27.66-28.95,32.69-52.27,70.25-80.87,103.27-3.66,4.23-14.49,17.17-18.38,19.54-7.36,4.46-5.06-5.23-4.24-9.23,3.23-15.92,10.16-33.41,14.39-49.48,6.38-24.26,12.65-48.94,14.26-74.07-22.36-2.44-44.45,4.74-66.41,4.04-60.11-1.93-72.68-26.52-71.36-82.42.94-39.45,4.6-86.43,10.15-125.59,5.5-38.81,25.13-54.28,63.41-58.44,45.96-5,99.13-4.95,146.05-7.06,52.76-2.37,105.47-4.44,158.23-5.95,17.24-.49,31.78-3.92,48.36,3.95ZM133.79,737.01c9.22-7.88,17.15-17.18,24.92-26.47,25.46-30.44,65.58-96.25,95.92-115.66,42.8-27.39,117.02,2.63,154.52-26.12,23.55-18.06,43.12-92.88,50.31-122.35,5.98-24.55,20.56-73.13,6.1-94.57-16.89-25.05-45.56-18.82-70.75-17.99-70.2,2.31-140.5,5.73-210.58,8.98-25.99,1.2-70.76-1.53-93.32,8.48-25.95,11.51-31.81,22.38-34.96,49.87-3.94,34.33-5.02,69.32-8,103.78-1.68,19.38-11.36,59.38,1.47,74.39,16.11,18.84,68.59,2.03,91.84,3.97,16.56,1.39,23.07,7.81,22.51,24.48-.73,21.61-8.73,50.32-14.29,71.53-5.05,19.25-12.2,38.14-15.67,57.67ZM91.86,347.78c-7.29-.04-15.68,2.25-22.47,4.96-33,13.17-33.05,44.99-36.4,75.38-4.34,39.47-10.36,92.78-7.03,131.77,3.63,42.5,48.78,49.55,83.42,47.42,16.77-1.03,34.25-6.52,51.35-3.04,1.32-10.75-5.49-16.65-15.58-17.85-24.72-2.96-69.69,11.33-90.09.27-23.5-12.74-13.06-44.87-11.1-65.76,3.54-37.84,5.15-75.97,8.99-113.76,1.65-16.25,2.12-34.69,16.44-45.44l22.47-13.94Z"/>
    <path class="cls-20" d="M133.79,737.01c3.47-19.53,10.63-38.42,15.67-57.67,5.56-21.21,13.56-49.92,14.29-71.53.56-16.67-5.95-23.1-22.51-24.48-23.24-1.95-75.73,14.87-91.84-3.97-12.83-15.01-3.14-55.01-1.47-74.39,2.98-34.46,4.06-69.45,8-103.78,3.15-27.49,9.01-38.36,34.96-49.87,22.56-10.01,67.33-7.27,93.32-8.48,70.08-3.25,140.38-6.68,210.58-8.98,25.19-.83,53.87-7.06,70.75,17.99,14.46,21.44-.12,70.02-6.1,94.57-7.18,29.47-26.76,104.29-50.31,122.35-37.5,28.75-111.72-1.27-154.52,26.12-30.34,19.41-70.46,85.22-95.92,115.66-7.77,9.29-15.69,18.59-24.92,26.47ZM170.36,436.25c9.47-8.8,5.75-24.92,22.62-33.77,26.21-13.74,44.19,14.68,67.54,21.65,18.24,5.44,53.04,3,65.3-13.57,4.36-5.9,6.03-17.14-3.81-15.85-4.88.64-18.49,11.52-26,13.98-37.24,12.19-54-27.97-83.85-29.03-11.31-.4-27.53,4.5-36.37,11.61s-21.38,28.58-19.83,39.58c1.18,8.39,7.98,11.38,14.41,5.4ZM372.96,483.15c4.94-4.9,2.78-14.96-3.58-18.17-9-4.56-31.48-1.99-42.52-2.39-40.62-1.46-80.94-3.72-121.76-3.99-11.27-.07-24.88-3.11-35.09,3.75-8.75,5.88-5.91,15.84,3.64,18.72,12.76,3.85,39.79.99,54.49,1.4,31.54.89,63.22,2.29,94.81,2.99,12.75.28,25.97,2.11,38.87,1.02,3.29-.28,8.84-1.05,11.14-3.33ZM158.46,498.71c-12.8,2.61-9.52,17.3,1.27,22.22,12.98,5.92,48.56,4.8,64.36,5.5,23.85,1.05,55.53,4.53,78.86,1.99,12.94-1.4,23.82-14.77,10.42-23.41-9.12-5.88-37.43-3.13-49.4-3.5-23.28-.72-46.48-1.47-69.86-2-10.17-.23-25.81-2.82-35.66-.81Z"/>
    <path class="cls-2" d="M91.86,347.78l-22.47,13.94c-14.32,10.75-14.79,29.19-16.44,45.44-3.84,37.8-5.45,75.93-8.99,113.76-1.96,20.89-12.4,53.01,11.1,65.76,20.4,11.06,65.38-3.23,90.09-.27,10.08,1.21,16.9,7.11,15.58,17.85-17.1-3.48-34.58,2.01-51.35,3.04-34.64,2.13-79.79-4.91-83.42-47.42-3.33-38.98,2.69-92.3,7.03-131.77,3.34-30.39,3.39-62.21,36.4-75.38,6.79-2.71,15.18-5,22.47-4.96Z"/>
    <path class="cls-8" d="M372.96,483.15c-2.3,2.28-7.85,3.05-11.14,3.33-12.9,1.09-26.11-.74-38.87-1.02-31.6-.7-63.27-2.1-94.81-2.99-14.7-.41-41.73,2.45-54.49-1.4-9.55-2.88-12.38-12.84-3.64-18.72,10.21-6.86,23.82-3.83,35.09-3.75,40.82.27,81.14,2.53,121.76,3.99,11.04.4,33.52-2.17,42.52,2.39,6.35,3.22,8.52,13.27,3.58,18.17Z"/>
    <path class="cls-19" d="M158.46,498.71c9.85-2.01,25.49.58,35.66.81,23.38.53,46.59,1.27,69.86,2,11.96.37,40.27-2.38,49.4,3.5,13.4,8.64,2.51,22.01-10.42,23.41-23.33,2.53-55.01-.94-78.86-1.99-15.8-.7-51.38.42-64.36-5.5-10.79-4.92-14.07-19.62-1.27-22.22Z"/>
    <path class="cls-3" d="M170.36,436.25c-6.43,5.98-13.23,2.99-14.41-5.4-1.55-11,11.33-32.74,19.83-39.58s25.06-12.01,36.37-11.61c29.85,1.06,46.61,41.21,83.85,29.03,7.51-2.46,21.12-13.34,26-13.98,9.85-1.29,8.18,9.95,3.81,15.85-12.26,16.57-47.06,19.01-65.3,13.57-23.34-6.97-41.33-35.39-67.54-21.65-16.88,8.85-13.15,24.96-22.62,33.77Z"/>
  </g>
  <text class="cls-6" transform="translate(545.34 460.04)"><tspan class="cls-17" x="0" y="0">N</tspan><tspan class="cls-18" x="54.44" y="0">o</tspan><tspan x="95.99" y="0">r</tspan><tspan class="cls-15" x="145.2" y="0">m</tspan><tspan x="228.14" y="0">a</tspan><tspan class="cls-11" x="279.76" y="0">n</tspan><tspan x="334.04" y="0">d</tspan><tspan class="cls-14" x="385.66" y="0">i</tspan><tspan x="411.43" y="0">e </tspan></text>
  <text class="cls-6" transform="translate(544.96 531.06)"><tspan class="cls-12" x="0" y="0">B</tspan><tspan class="cls-13" x="50.73" y="0">l</tspan><tspan class="cls-21" x="76.91" y="0">o</tspan><tspan x="119.42" y="0">g </tspan><tspan class="cls-22" x="181.35" y="0">S</tspan><tspan class="cls-10" x="231.68" y="0">ch</tspan><tspan class="cls-16" x="321.88" y="0">oo</tspan><tspan x="386.54" y="0">l</tspan></text>
</svg>